<svg id="Capa_1" data-name="Capa 1" xmlns="http://www.w3.org/2000/svg" viewBox="0 0 500.03 500"><defs><style>.cls-1{fill:#19a357;}</style></defs><title>Artboard 9</title><path class="cls-1" d="M8.31,386.62H62.25a8.3,8.3,0,0,0,8.3-8.3V320.86H401.28v57.46a8.3,8.3,0,0,0,8.3,8.3h82.15a8.3,8.3,0,0,0,8.3-8.3V265.57a8.3,8.3,0,0,0-8.3-8.3H460.6V190c0-18-18.77-32.08-42.72-32.08H204.55a8.3,8.3,0,0,0-8.3,8.3v63.1H121.69c-18.45,0-33.92,12-37.93,28H70.55V121.68a8.3,8.3,0,0,0-8.3-8.3H8.31a8.3,8.3,0,0,0-8.3,8.3V378.32A8.3,8.3,0,0,0,8.31,386.62Z"/><path class="cls-1" d="M142.76,224.12a43.94,43.94,0,1,0-43.94-43.94A44,44,0,0,0,142.76,224.12Z"/></svg>