<svg version="1.1"
	 xmlns="http://www.w3.org/2000/svg" xmlns:xlink="http://www.w3.org/1999/xlink" xmlns:a="http://ns.adobe.com/AdobeSVGViewerExtensions/3.0/"
	 x="0px" y="0px" width="37.3px" height="20.4px" viewBox="0 0 37.3 20.4" style="enable-background:new 0 0 37.3 20.4;"
	 xml:space="preserve">
<style type="text/css">
	.st0{fill:#19A357;}
</style>
<defs>
</defs>
<g>
	<path class="st0" d="M0.6,20.4h4c0.3,0,0.6-0.3,0.6-0.6v-4.3h24.7v4.3c0,0.3,0.3,0.6,0.6,0.6h6.1c0.3,0,0.6-0.3,0.6-0.6v-8.4
		c0-0.3-0.3-0.6-0.6-0.6h-2.3v-5c0-1.3-1.4-2.4-3.2-2.4H15.3c-0.3,0-0.6,0.3-0.6,0.6v4.7H9.1c-1.4,0-2.5,0.9-2.8,2.1h-1V0.6
		C5.3,0.3,5,0,4.6,0h-4C0.3,0,0,0.3,0,0.6v19.2C0,20.1,0.3,20.4,0.6,20.4z"/>
	<circle class="st0" cx="10.7" cy="5" r="3.3"/>
</g>
</svg>
