<svg version="1.1"
	 xmlns="http://www.w3.org/2000/svg" xmlns:xlink="http://www.w3.org/1999/xlink" xmlns:a="http://ns.adobe.com/AdobeSVGViewerExtensions/3.0/"
	 x="0px" y="0px" width="36.7px" height="36.7px" viewBox="0 0 36.7 36.7" style="enable-background:new 0 0 36.7 36.7;"
	 xml:space="preserve">
<style type="text/css">
	.st0{fill:#19A357;}
</style>
<defs>
</defs>
<g>
	<path id="megaphone_1_" class="st0" d="M28.6,0c-2.4,0-4.2,1.6-5.5,4.1l0,0c-1.9,3.8-4.8,6.2-7.9,6.2h-0.8h-5H4.6
		C2,10.3,0,12.8,0,16c0,3.2,2,5.7,4.6,5.7c1.3,0,2.3,1,2.3,2.3v10.3c0,1.3,1,2.3,2.3,2.3h4.6c1.3,0,2.3-1,2.3-2.3v-1.1
		c0-1.1-1.1-1.7-1.1-2.3v-8c0,0,0,0,0-0.1c0-0.2,0.1-0.3,0.1-0.5c0,0,0-0.1,0.1-0.1c0.1-0.1,0.2-0.2,0.3-0.3c0,0,0,0,0,0
		c0,0,0,0,0,0c0.1-0.1,0.2-0.1,0.3-0.1c2.9,0.3,5.5,2.6,7.3,6.2l0,0c1.3,2.5,3.2,4.1,5.5,4.1c5.3,0,8-8.1,8-16S33.9,0,28.6,0z
		 M22.9,16c0-1.2,0.1-2.3,0.2-3.4h3.2c1.3,0,2.3,1.5,2.3,3.4c0,1.9-1,3.4-2.3,3.4h-3.2C23,18.4,22.9,17.2,22.9,16z M2.3,16
		c0-1.9,1-3.4,2.3-3.4h4.8h1h2.3c-0.7,0.8-1.2,2-1.2,3.4c0,1.4,0.5,2.6,1.2,3.4h-2.3H4.6C3.3,19.5,2.3,17.9,2.3,16z M13.7,34.4H9.2
		V24.1c0-0.8-0.2-1.6-0.6-2.3h0.8v0h3.4c-0.1,0.4-0.2,0.7-0.2,1.1v8c0,1.1,0.6,1.8,1,2.3c0.1,0.1,0.1,0.1,0.2,0.2V34.4z M15.2,19.5
		h-0.3v0c-1.3,0-2.3-1.5-2.3-3.4c0-1.9,1-3.4,2.3-3.4h0.3c2.2,0,4.2-0.9,6-2.3c-0.3,1.8-0.5,3.8-0.5,5.8c0,2,0.2,3.9,0.5,5.8
		C19.3,20.3,17.3,19.5,15.2,19.5z M28.6,29.8c-2.3,0-4.3-3.3-5.2-8h2.9c2.6,0,4.6-2.5,4.6-5.7c0-3.2-2-5.7-4.6-5.7h-2.9
		c0.9-4.7,2.9-8,5.2-8c3.2,0,5.7,6.2,5.7,13.8S31.8,29.8,28.6,29.8z"/>
</g>
</svg>
