<svg id="Capa_1" data-name="Capa 1" xmlns="http://www.w3.org/2000/svg" viewBox="0 0 500.03 500"><defs><style>.cls-1{fill:#19a357;}</style></defs><title>Artboard 5</title><path id="megaphone" class="cls-1" d="M390.64,0c-32.08,0-57.28,22-75.37,56l-.33-.19c-26.28,51.45-65.41,84.78-108.27,84.78H62.52C27.47,140.63,0,175,0,218.75s27.45,78.13,62.5,78.13a31.24,31.24,0,0,1,31.17,31.25V468.75A31.25,31.25,0,0,0,124.94,500h62.5a31.25,31.25,0,0,0,31.25-31.25V453.13c0-15.62-15.62-22.61-15.62-31.25V312.5c0-.36.25-.61.28-1a15.5,15.5,0,0,1,1.75-6.17A10.55,10.55,0,0,1,206,304a15.45,15.45,0,0,1,4.75-4.58c.09-.06.13-.16.22-.22s.11-.06.17-.06a18.3,18.3,0,0,1,4.16-1.25c39.44,4.19,75.14,36,99.64,84l.39-.19c18.11,33.89,43.25,55.86,75.3,55.86,71.81,0,109.38-110,109.38-218.75S462.45,0,390.64,0ZM312.52,218.75a439.6,439.6,0,0,1,2.56-46.87h44.31c17.25,0,31.25,21,31.25,46.88s-14,46.88-31.25,46.88H315.08A439.14,439.14,0,0,1,312.52,218.75Zm-281.25,0c0-25.88,14-46.87,31.25-46.87H172.11c-9.69,11.39-15.84,27.92-15.84,46.88s6.16,35.52,15.84,46.88H62.52C45.27,265.63,31.27,244.66,31.27,218.75Zm156.17,250h-62.5V328.13a62,62,0,0,0-8.39-31.25h10.91v.19h47a47.23,47.23,0,0,0-2.64,15.44V421.88c0,15,8.41,25.06,13.42,31,.69.83,1.5,1.67,2.2,2.59Zm19.23-202.94h-3.53v-.19c-17.25,0-31.25-21-31.25-46.87s14-46.87,31.25-46.87h3.53c29.47,0,57.06-11.59,81.34-31.53a458.88,458.88,0,0,0,0,157C263.75,277.41,236.14,265.81,206.67,265.81Zm184,140.44c-31.53,0-58.59-44.86-71-109.37h39.7c35,0,62.5-34.3,62.5-78.12s-27.47-78.12-62.5-78.12h-39.7c12.36-64.48,39.42-109.37,71-109.37,43.16,0,78.13,84,78.13,187.5S433.8,406.25,390.64,406.25Z"/></svg>